<?xml version="1.0" encoding="UTF-8"?>
<svg id="Livello_1" data-name="Livello 1" xmlns="http://www.w3.org/2000/svg" viewBox="0 0 200 200">
  <defs>
    <style>
      .cls-1 {
        fill: #727984;
        stroke-width: 0px;
      }
    </style>
  </defs>
  <path class="cls-1" d="m29.56,80.65c-5.78-5.9-11.01-11.87-15.73-18.27-4.13-5.6-7.88-11.44-11.19-17.57-.86-1.59-1.09-3.19-.81-4.92,1-6.08,1.98-12.17,3-18.25.53-3.2,2.28-4.66,5.48-4.23,6.67.9,13.32,1.94,19.97,2.95,1.88.29,2.85,1.68,3.72,3.2,6.22,10.82,13.65,20.72,22.68,29.37,6.59,6.32,13.83,11.74,21.81,16.19,1.11.62,2.17.85,3.44.69,10.98-1.35,21.97-2.53,33.01-3.29,12.31-.85,24.64-1.85,36.98-.57,5.37.56,10.64,1.62,15.57,3.98,4.66,2.23,7.39,5.69,7.09,11.03-.1,1.84.53,2.33,2.37,2.45,5.9.37,11.67,1.52,16.94,4.39,4.05,2.2,6.22,5.33,6.11,10.28-.24,10.06-.04,20.14-.01,30.21.01,3.75-1.9,6.46-4.73,8.6-5.08,3.84-11.05,5.67-17.08,7.33-4.65,1.28-9.39,2.2-14.15,2.88-1.67.24-1.85.92-1.84,2.32.06,6.1.08,12.21,0,18.31-.08,7.47-4.54,13.11-11.51,14.61-1.23.26-2.53.28-3.8.28-16.68.02-33.35,0-50.03,0-5.68,0-9.94-2.5-12.8-7.34-.54-.91-1.04-1.36-2.12-1.29-1.55.11-3.12.14-4.68.07-1.16-.05-1.39.44-1.43,1.5-.26,6.5-.88,7.07-7.38,7.05-3.83-.01-7.66,0-11.5,0-3.41-.01-4.97-1.49-5.15-4.82-.22-3.98-.22-3.95-4.17-4.25-8.27-.63-16.55-1.29-24.53-3.76-7.16-2.22-13.72-5.44-18.31-11.7-3.03-4.13-4.58-8.84-4.64-13.91-.13-11.14-.24-22.29.03-33.42.21-8.69,4.84-15.23,11.41-20.52,5.3-4.27,11.35-7.21,17.99-9.61Zm132.81,25.42c1.47-.22,2.65-.43,3.83-.57.89-.1,1.19-.55,1.13-1.43-.29-4.6-.58-9.2-.8-13.8-.06-1.34-.48-1.51-1.69-1.05-4.35,1.63-8.92,2.31-13.52,2.62-13.86.93-27.64.08-41.27-2.54-24.13-4.62-45.07-15.33-62.3-33.01-7.61-7.81-14.1-16.47-19.71-25.81-.51-.85-.78-1.94-2.15-2.11-3.79-.47-7.58-1.05-11.35-1.67-1.4-.23-1.89.31-2.08,1.6-.54,3.64-1.09,7.28-1.77,10.9-.26,1.36,0,2.45.68,3.61,2.95,5.1,6.13,10.05,9.68,14.75,17.24,22.83,38.6,40.01,66.45,48.21,8.46,2.49,17.13,4.15,25.93,4.19,8.5.04,17-.6,25.5-1.1,5.83-.35,11.64-.99,17.52-1.85-2.94-2.92-3.41-5.54-1.5-7.86,1.59-1.92,4.4-2.31,6.53-.91,2.38,1.56,2.72,4.03.89,7.82Zm28.96,1.07c-2.3.92-4.24,1.77-6.23,2.46-2.07.72-4.19,1.33-6.31,1.89-19.59,5.22-39.72,6.52-59.8,7.15-19.06.59-38.18.65-57.23-.8-8.27-.63-16.54-1.4-24.48-4.01-1.41-.46-1.73-.12-1.73,1.25.03,5.82.02,11.64-.02,17.46,0,1.05.27,1.5,1.4,1.59,3.74.3,7.48.71,11.22,1.07q3.72.35,3.75-3.45c0-.28,0-.57,0-.85.09-3.03,1.52-4.7,4.52-4.77,4.96-.12,9.94-.11,14.9,0,2.74.06,4.22,1.77,4.54,4.42.21,1.73-1.07,4.11.69,5.03,1.44.75,3.61.08,5.45.1.91.01,1.36-.41,1.79-1.18,2.95-5.33,7.46-7.84,13.59-7.81,16.39.08,32.79.03,49.18.03,7.99,0,12.53,3.22,15.11,10.78.3.87.53,1.21,1.6,1.02,5.94-1.05,11.83-2.26,17.57-4.12,3.17-1.03,6.31-2.16,9.05-4.14.75-.54,1.47-1.07,1.46-2.18-.03-6.88-.01-13.76-.01-20.92Zm-69.24,66.94h0c8.44,0,16.88.02,25.32-.02,3.72-.02,6.03-2.27,6.05-5.94.04-8.94.04-17.87,0-26.81-.02-3.74-2.24-6-5.94-6.01-16.88-.03-33.76-.03-50.64,0-3.66,0-5.96,2.32-6.05,5.96-.05,2.2.1,4.41-.05,6.59-.13,1.86.34,2.51,2.39,2.5,13.26-.1,26.53-.05,39.79-.04.71,0,1.43-.04,2.12.06,2.37.34,3.97,2.29,3.83,4.59-.13,2.22-1.82,3.88-4.23,3.91-5.46.08-10.91.07-16.37.07-8.72,0-17.43-.01-26.15-.04-.99,0-1.39.35-1.36,1.37.05,2.27,0,4.54.01,6.81.01,4.84,2.17,6.99,7.02,7,8.09,0,16.17,0,24.26,0ZM8.63,132.68c.16,5.02-.46,9.63.51,14.15,1.62,7.53,7,11.54,13.81,13.99,8.91,3.21,18.3,3.55,27.6,4.32,1.04.09,1.36-.3,1.36-1.31-.03-6.1-.03-12.19,0-18.29,0-1.18-.42-1.62-1.6-1.65-2.41-.08-4.81-.26-7.21-.46-8.06-.67-16.04-1.73-23.67-4.63-3.77-1.44-7.23-3.42-10.8-6.12Zm27.86-45.06c-.09.02-.31.03-.51.09-7.87,2.37-15.37,5.53-21.36,11.37-8.47,8.26-7.9,21.24,1.1,28.18,2.73,2.1,5.88,3.34,9.11,4.48,1.74.61,2.16.13,2.14-1.63-.06-9.07.01-18.15-.03-27.22-.01-2.67.84-5,2.31-7.15,1.98-2.87,4.7-4.87,7.68-6.58.36-.21,1.1-.29.75-1-.19-.38-.61-.58-1.2-.52Zm60.82-10.82c.16.3.19.48.28.51,1.01.33,2.01.67,3.04.96,16.18,4.58,32.7,5.86,49.43,5.03,4.02-.2,8.05-.76,11.86-2.19,1.23-.46,3.21-.8,3.22-2.02.01-1.44-2-1.7-3.27-2.16-5.86-2.15-11.99-2.76-18.16-2.88-12.49-.25-24.91.87-37.34,1.83-3,.23-5.98.61-9.05.93Zm-36.82,77.71c0,4.96,0,9.93,0,14.89,0,4.74,0,4.66,4.8,4.73,1.65.02,1.99-.51,1.98-2.05-.06-10.85-.03-21.7-.03-32.55,0-4.94,0-4.87-4.94-4.87-1.58,0-1.85.58-1.84,1.98.07,5.96.03,11.91.03,17.87Zm12.04-44.65c-.53-.42-.62-.52-.73-.57-8.75-3.76-17.03-8.37-24.78-13.92-.51-.37-1.03-.81-1.74-.54-3.41,1.29-6.71,2.78-8.96,5.81-1.06,1.43-.84,2.77.83,3.73,1.61.93,3.35,1.52,5.13,1.98,9.74,2.51,19.74,2.8,30.24,3.5Zm9.7,45.15c0-2.05,0-4.1,0-6.15,0-4.71,0-4.66-4.66-4.57-1.38.03-1.8.43-1.78,1.83.08,4.95.04,9.9.03,14.85,0,4.82-.02,4.78,4.85,4.55,1.16-.06,1.62-.37,1.58-1.6-.08-2.97-.03-5.94-.02-8.91Zm93.31-58.15s-.08,0-.12,0c.15,1.83.3,3.66.43,5.49.05.72.27.95,1.05.73,4.36-1.23,8.7-2.51,12.52-5.04,2.1-1.39,2.04-1.94-.28-3.02-3.82-1.79-7.93-2.45-12.07-3.06-1.74-.26-2.13.36-1.83,1.93.19.97.2,1.97.29,2.95Z"/>
  <path class="cls-1" d="m93.7,100.92c-2.78,0-5.02-2.23-4.97-4.98.05-2.56,2.39-4.85,4.97-4.85,2.71,0,4.98,2.33,4.93,5.06-.05,2.7-2.18,4.77-4.93,4.77Z"/>
  <path class="cls-1" d="m60.03,82.76c-.04-2.75,2-4.9,4.71-4.96,2.82-.06,5.11,2.09,5.12,4.82.02,2.71-2.29,5.03-4.99,5.01-2.68-.02-4.8-2.16-4.84-4.87Z"/>
  <path class="cls-1" d="m126.64,107.24c-2.81,0-4.93-2.17-4.89-5,.04-2.74,2.14-4.82,4.86-4.81,2.76,0,5.02,2.27,4.97,4.99-.05,2.62-2.3,4.82-4.94,4.82Z"/>
</svg>